<svg xmlns="http://www.w3.org/2000/svg" viewBox="0 0 356.83 374.49"><defs><style>.a{fill:#fff;}</style></defs><path class="a" d="M341.86,178.56C339.74,133,320,89.39,286.34,55.71S209,2.3,163.49.19,75.88,13.83,45.13,44.58C-18.3,108-13.31,216.22,56.26,285.79c35.35,35.35,83,55.62,130.81,55.62h0c42.49,0,81.69-15.8,110.38-44.49C328.21,266.17,344,224.14,341.86,178.56Zm-46.1,116.65C267.35,323.61,229.07,339,187.23,339q-4,0-8-.19c-45-2.09-88-21.53-121.23-54.73-68.63-68.63-73.62-175.3-11.13-237.79C75.13,18,113.68,2.42,155.39,2.42c2.64,0,5.33.06,8,.18,44.94,2.09,88,21.56,121.26,54.82s52.73,76.32,54.81,121.25S326,265,295.76,295.21Z"/><path class="a" d="M87.31,284.26l48.48-98.89H81.31V156.46h98.55v6.17L123.71,284.26Z"/><path class="a" d="M229.32,158.17a41.23,41.23,0,0,1,6.43-1.45,48.27,48.27,0,0,1,7.05-.49q16.39,0,27.15,11.5T280.7,197q0,21.35-13.44,34.16t-36,12.82q-22.48,0-35.7-12.69t-13.22-34.11a63.11,63.11,0,0,1,4.45-22.65q4.44-11.64,18.64-33.85l18.07-27.94h36Zm1.58,20.63q-9,0-14.23,5.33t-5.25,14.5q0,9.08,5.25,14.37t14.23,5.29q9,0,14.24-5.29t5.24-14.37q0-9.16-5.24-14.5T230.9,178.8Z"/><path class="a" d="M178.42,17.66C80,17.66,0,97.69,0,196.07S80,374.49,178.42,374.49s178.41-80,178.41-178.42S276.8,17.66,178.42,17.66Zm0,4.83C274.13,22.49,352,100.36,352,196.07S274.13,369.66,178.42,369.66,4.83,291.79,4.83,196.07,82.7,22.49,178.42,22.49Z"/><path class="a" d="M329.36,71.27a23.85,23.85,0,1,1-23.84-23.84A23.84,23.84,0,0,1,329.36,71.27Z"/></svg>