<svg xmlns="http://www.w3.org/2000/svg" xmlns:xlink="http://www.w3.org/1999/xlink" viewBox="0 0 538.44 140"><defs><style>.a{fill:url(#a);}.b{fill:url(#b);}.c{fill:url(#c);}.d{fill:url(#d);}.e{fill:#fff;}</style><linearGradient id="a" x1="59.46" y1="-6.88" x2="99.83" y2="120.81" gradientUnits="userSpaceOnUse"><stop offset="0" stop-color="#58caff"/><stop offset="1" stop-color="#0083f5"/></linearGradient><linearGradient id="b" x1="16.85" y1="101.5" x2="13.04" y2="21.09" gradientUnits="userSpaceOnUse"><stop offset="0" stop-color="#ff7105"/><stop offset="1" stop-color="#fb0"/></linearGradient><linearGradient id="c" x1="41.54" y1="127.24" x2="84.1" y2="21.88" gradientUnits="userSpaceOnUse"><stop offset="0" stop-color="#61ba09"/><stop offset="1" stop-color="#b5ff25"/></linearGradient><linearGradient id="d" x1="69.53" y1="88.86" x2="61.7" y2="41.08" gradientUnits="userSpaceOnUse"><stop offset="0" stop-color="#e5f6d2"/><stop offset="0.52" stop-color="#f8fafc"/></linearGradient></defs><path class="a" d="M148.2,83.88c10-10.39,8.76-20-.08-28.33-13.17-12.35-28.76-22.32-45-31.64A300.19,300.19,0,0,0,53.45,1.07,18.64,18.64,0,0,0,28.93,15.24a302,302,0,0,0-.07,109.51,18.66,18.66,0,0,0,24.6,14.16,301,301,0,0,0,50.44-23.5C119.87,106.09,135.82,96.75,148.2,83.88Z"/><path class="b" d="M28.73,16.26l-1.37-.42c-10-3-18.75.42-22.69,11.11C-.28,40.36,0,55.3,0,70S-.07,99.4,4.61,112.81c4.3,12.33,12.76,14.13,22.76,11.1l1.29-.4a301.64,301.64,0,0,1,.07-107.25Z"/><path class="c" d="M28.73,16.38a301.58,301.58,0,0,0-.07,107.24A302.44,302.44,0,0,0,74,105.6c14.78-7.31,28.88-15.06,41-24.72,9.06-7.22,8.17-15.58-.07-22.21-12.22-9.84-26.62-17.5-41.63-24.81A304.37,304.37,0,0,0,28.73,16.38Z"/><path class="d" d="M43.57,47.88s-.86,2.22-.86,22,.86,22.24.86,22.24c.51,2.43,1.58,3.24,4.25,2.63,0,0,4.47-.69,22.46-9.74s21-12.4,21-12.4c2-1.91,2.44-3.17,0-5.26,0,0-4.93-4.5-21-12.68-15.89-8.1-22.47-9.45-22.47-9.45C45.59,44.61,44.18,45.31,43.57,47.88Z"/><path class="e" d="M195.8,27.4h13a4,4,0,0,1,4,3.57l5.75,53.32h.25L244.3,29.71a4,4,0,0,1,3.62-2.31h12.26a4,4,0,0,1,3.94,3.31l9.7,55.08h.25l22.05-55.86a4,4,0,0,1,3.72-2.53h11A4,4,0,0,1,314.5,33L279.62,113.7a4,4,0,0,1-3.67,2.41H264.51a4,4,0,0,1-3.94-3.29l-10.44-58.1h-.25l-27,59.05a4,4,0,0,1-3.64,2.34h-10.8a4,4,0,0,1-3.95-3.38L191.84,32A4,4,0,0,1,195.8,27.4Z"/><path class="e" d="M362.18,102.73a4,4,0,0,1,0,6.21,36.09,36.09,0,0,1-9.09,5.54,37.13,37.13,0,0,1-14.72,3.14,35.91,35.91,0,0,1-12.91-2.26,26,26,0,0,1-9.83-6.45,25.44,25.44,0,0,1-5.77-10.09A30.27,30.27,0,0,1,309,85.66a35.33,35.33,0,0,1,4.45-13.15,36.83,36.83,0,0,1,8.58-10.09A37.75,37.75,0,0,1,333.71,56a41.24,41.24,0,0,1,13.54-2.26A27.86,27.86,0,0,1,358.77,56a20.39,20.39,0,0,1,8.15,6.45c5.74,7.69,5.77,18.15,4,27.17h0a2.42,2.42,0,0,1-2.37,2H327a12.66,12.66,0,0,0,3.69,8.59,12.22,12.22,0,0,0,8.84,3.19,15.39,15.39,0,0,0,8.08-2.07,25.4,25.4,0,0,0,3.94-2.92,4,4,0,0,1,5.19-.11Zm-8.67-24a9.89,9.89,0,0,0-2-8.14c-1.84-2.26-4.47-3.38-7.9-3.38a15,15,0,0,0-5.64,1,16,16,0,0,0-4.38,2.57,14.28,14.28,0,0,0-3.13,3.63,14.11,14.11,0,0,0-1.76,4.32Z"/><path class="e" d="M403.14,44.69H382.42a4,4,0,0,1-4-4.54l1.28-9.29a4,4,0,0,1,4-3.46h62.09a4,4,0,0,1,4,4.55l-1.28,9.29a4,4,0,0,1-4,3.45H422.68l-9.54,68a4,4,0,0,1-4,3.44H397.72a4,4,0,0,1-4-4.55Z"/><path class="e" d="M458.67,27.4h14a4,4,0,0,1,3.89,3.08l13.06,55.06h.25l29.32-56a4,4,0,0,1,3.55-2.15h11.72a4,4,0,0,1,3.5,5.94l-44.57,80.71a4,4,0,0,1-3.5,2.06H479.65a4,4,0,0,1-3.87-3l-21-80.71A4,4,0,0,1,458.67,27.4Z"/></svg>